<svg xmlns="http://www.w3.org/2000/svg" viewBox="0 0 364 364"><defs><style>.cls-1{isolation:isolate;}.cls-10,.cls-15,.cls-2{fill:#fff;}.cls-3,.cls-4{fill:#9ecd60;}.cls-4{opacity:0.53;}.cls-4,.cls-6{mix-blend-mode:multiply;}.cls-5,.cls-6{fill:#4cb0d1;}.cls-6{opacity:0.42;}.cls-7{fill:#006837;}.cls-8{fill:#208008;}.cls-9{fill:#0b526d;}.cls-10,.cls-15{stroke:#3d9cce;stroke-miterlimit:10;}.cls-10{stroke-width:1.11px;}.cls-11{fill:#69a544;}.cls-12{fill:#277f8e;}.cls-13{fill:#008745;}.cls-14{fill:#1f3147;}.cls-15{stroke-width:1.15px;}.cls-16{fill:#2e3e57;}.cls-17{fill:#348096;}</style></defs><title>sofici-profile-pic</title><g class="cls-1"><g id="Layer_2" data-name="Layer 2"><g id="Layer_1-2" data-name="Layer 1"><rect class="cls-2" width="364" height="364"/><path class="cls-3" d="M26.06,99.63c2.22,27.52,7.86,29,8,61.9.18,39.6-7.35,84.84-7.53,91.83-.42,16.25,9.5,27.27,27.34,28.78a85.32,85.32,0,0,1,8.84,1s-.19,27.51-.41,36.37,6,16.9,13.35,17.09c8.37.22,19.13-15.76,22.8-24.54,3.61-8.62,3.73-29.09,3.73-29.09l30,.48s-2.3,27.33-3.3,33.83c-1.48,9.57.78,16.77,7.2,16.69,21.19-.27,27.11-25.71,30.06-46.79.59-4.17,2.11-5.37,2.11-5.37s12.38.15,15.85-.75c2.9-.74,4.52-8,5.4-23.24s1.76-162.7,2.26-182.39c.41-15.76-5.2-27.73-19-26.36-14.71,1.46-78.19,3.55-112,4.68C44.32,54.27,23.85,72.11,26.06,99.63Z"/><path class="cls-4" d="M33.6,137.21c.11,29-6.92,111-7,116.15-.42,16.25,9.45,28.32,27.34,28.78,6.4.17,8.84,1.22,8.84,1.22s-.19,27.26-.41,36.12,6,16.9,13.35,17.09c8.37.22,19.13-15.76,22.8-24.54,3.61-8.62,3.73-29.09,3.73-29.09l30,.48s-2.3,27.33-3.3,33.83c-1.48,9.57.78,16.77,7.2,16.69,21.19-.27,27.11-25.71,30.06-46.79.59-4.17,2.11-5.37,2.11-5.37s12.38.15,15.85-.75c2.9-.74,4.52-4.44,5.4-19.69.4-6.91.68-56.24.91-92.76,0,0-32,11.83-81.67,12.42C73.56,181.42,33.6,137.21,33.6,137.21Z"/><path class="cls-5" d="M208.63,47.64s73.89,2.91,91.13,3.35c26.59.69,42.35,20.31,41.73,44.43-.14,5.4-8.05,36.44-8.31,48.48-.89,41.76,5.38,89.77,4.72,100.46-.84,13.78-5.16,30.83-19.55,32.51-6.92.81-11.37,1.19-11.37,1.19s4.74,31.48,2.58,38.81-7.78,15.08-14.67,14.9c-9.85-.25-19.49-51.57-19.49-51.57l-30.75.84s-.55,19.71-3.29,30.48S230.78,330.21,223.89,330s-11-31.73-11.71-43.57-.56-6-.56-6-1.49-.75-6.92-.37c-10.36.72-15-11.72-14.49-30.43.27-10.34-1.46-174.22-1.24-183S193.37,47.25,208.63,47.64Z"/><path class="cls-6" d="M293.38,188.7C233.61,192.84,189.23,168,189.23,168c1.43,34.46.6,81.49.66,85.69.28,18.71,4.8,28,15.13,26.85,5.4-.6,6.88.09,6.88.09s.27-2.89,1.43,8.91,4.22,40.21,11.11,40.1,14.41-8.34,16.71-19.21,3.71-29.4,3.71-29.4l31.39-.32s8.77,50.83,18.62,50.69c6.89-.11,12.19-8.07,14.05-15.48s-1.2-38.64-1.2-38.64,4.43-.55,11.31-1.64c14.31-2.27,18-16,18.27-29.83.12-6.18-2.19-32.85-3.09-64.2C334.21,181.59,318.88,186.93,293.38,188.7Z"/><path class="cls-7" d="M98,116.22l3.79,2.2a1.85,1.85,0,0,1,.56,2.69,27.88,27.88,0,0,1-10.49,8.82c-9.73,4.37-18.87-2.44-22.25-5.47a1.83,1.83,0,0,1-.09-2.65l1.14-1.19a1.86,1.86,0,0,1,2.43-.2c2.57,1.9,8.71,5.59,14.74,2.88a17.4,17.4,0,0,0,7.68-6.48A1.83,1.83,0,0,1,98,116.22Z"/><path class="cls-8" d="M82.83,152.17l57.44.34c3.28.06,2.81,4.5.47,8.3-5,8.1-13.43,17.31-31.35,17.21-15-.09-25.9-9.74-31-18.24A5,5,0,0,1,82.83,152.17Z"/><path class="cls-9" d="M295.38,152l-58.47-13.88a3.89,3.89,0,0,0-4.65,3.47c-1.14,9.4-1,31.14,23.09,37.08,23.41,5.78,37.07-11.72,42.36-20.64A4,4,0,0,0,295.38,152Z"/><path class="cls-10" d="M275.1,122.75c2,10.07,10.93,13.46,18.4,12.18,6.67-1.15,12.25-9.18,10.2-18.28-2.49-11.06-10.52-13.81-18-12.52C279.1,105.26,273.14,113.09,275.1,122.75Z"/><path class="cls-11" d="M56.42,215.67s32.25,4.4,44.54,6.42c17.24,2.85-2-8,.93-9.88s7.89,3.72,12.13,5.73,15.31-1.42,15.31-1.42c3.89,8,2.24,42-31.31,25.56-7.26-3.57-40.14,6.47-74.22-17.06-9.8-6.76-10-19.76-9.35-22.64S52.77,214.86,56.42,215.67Z"/><path class="cls-3" d="M28.91,187.45c-1.51-.72,37.17,13.05,53.24,14.2,13,.92,21.71-2.52,21.71-2.52a15.18,15.18,0,0,1,12.38-14.22A21.44,21.44,0,0,1,130,186.28s9.69,9.37,10.41,14.84-4.68,8.81-4.68,8.81c1.26,1.66,1.7,5.56.07,10.44-3.35,10-8,15.71-18.74,16.32a37.1,37.1,0,0,1-19.53-4.88s-35.15,9.39-77.88-16.3c0,0-6.79-4.9-5.66-13.2S28.91,187.45,28.91,187.45Z"/><path class="cls-12" d="M309.57,256.75l19.72-23s-24.41,5.95-34.4-1.12-26.65-20.51-26.65-20.51l1.78-9.82-8.76-1.15s-8.32,18.38-11.15,22.45-2.89,15.84,5.08,21.35,21.81,5.52,26.6,8.05C302.36,263.85,309.57,256.75,309.57,256.75Z"/><path class="cls-5" d="M344,208.28s1,18.14-5.66,26.72c-11.11,14.44-21.82,20.65-39.88,14.67-9.91-3.27-19.61-7.63-19.61-7.63s-15.25-1.17-20.24-4.39-13-10.1-8.49-22.07a53.2,53.2,0,0,1,3-6.66c1.18-2.19,5.28-5,5.28-5,.9-1.26,1.39-3.6,2.74-6,1.59-2.79,2.31-2.52,3.48-2.91,4.67-1.56,19.25-3.21,23.73,1.48s8.61,12.23,8.07,16.16h0s16.44,9.74,21.76,2l4.14-12.42,12.13-10.24S343.76,199.46,344,208.28Z"/><path class="cls-13" d="M131.77,188.89c-.62-1-2-.52-2.65.09a8.51,8.51,0,0,1-3.21,1c.51-.84.88-1.94,0-2.42-4-2.19-8.8,1.1-8.73,5.49,0,.61.14,1.27.85,1.46a16.74,16.74,0,0,0,6.77.47,13.28,13.28,0,0,0,6-3.11C131.51,191.27,132.39,189.87,131.77,188.89Z"/><ellipse class="cls-14" cx="286.63" cy="121.69" rx="7.95" ry="8.94" transform="translate(-18.61 60.12) rotate(-11.6)"/><path class="cls-15" d="M224.59,120.08c2.1,10.5,11.25,14,18.94,12.71,6.85-1.19,12.59-9.57,10.48-19.06-2.57-11.54-10.84-14.41-18.52-13.08C228.7,101.83,222.58,110,224.59,120.08Z"/><ellipse class="cls-14" cx="238.05" cy="119.48" rx="8" ry="8.74" transform="translate(-4.16 8.68) rotate(-2.07)"/><path class="cls-6" d="M327.8,124.44a9.66,9.66,0,0,1,9.7,7.58,14.76,14.76,0,0,1,5.63,13.91c-1.17,9.33-3.95,25.53-13.8,25.34,0,0-15.44,8.06-14.92-17.54S327.8,124.44,327.8,124.44Z"/><path class="cls-7" d="M144.73,123.92a15.78,15.78,0,0,0,9.52-5.22,2.56,2.56,0,0,1,3.38-.3l2.62,1.92a2.57,2.57,0,0,1,.44,3.72,17,17,0,0,1-9.85,5.66c-8,1.65-17.89-.51-21.78-8.81a2.55,2.55,0,0,1,1-3.24l.24-.14a2.57,2.57,0,0,1,3.44.79C135.53,120.87,139.15,124.77,144.73,123.92Z"/><path class="cls-16" d="M297.71,158a4,4,0,0,0-2.33-6l-58.47-13.88a3.89,3.89,0,0,0-4.65,3.47l-.35,4.9,62.63,16.33Z"/><path class="cls-7" d="M78.35,159.78a5,5,0,0,1,4.48-7.61l57.44.34c3.28.06,2.81,4.5.47,8.3"/><path class="cls-3" d="M334.69,124.58a9.65,9.65,0,0,1,9.7,7.58,14.77,14.77,0,0,1,5.64,13.9c-1.17,9.34-4,25.54-13.81,25.34,0,0-15.43,8.07-14.92-17.54S334.69,124.58,334.69,124.58Z"/><path class="cls-11" d="M41.75,155.45,25.88,142.34c-8.08-.21-4.76,4.06-4.77,21.09s1.37,29.4,5.93,34.2c2.14,2.25,14.85,2.09,20-.33s6.73-13.45,6.13-23.26S41.75,155.45,41.75,155.45Z"/><path class="cls-5" d="M35,149.85l-1.36-13.23c-8.08-.21-19.26,4.19-19.27,21.22s1.37,29.4,5.93,34.2c2.13,2.25,14.84,2.08,20-.34s6.73-13.44,6.13-23.25S35,149.85,35,149.85Z"/><path class="cls-7" d="M72.73,53.32a104.72,104.72,0,0,1,61.09,33.32l-2.59-20.12,36.7,16.35c-17.45-28.22-55-42.2-86.64-32.25"/><path class="cls-9" d="M222.25,51.55c-5.64,3.89-6,13.42-.61,17.69s14.58,1.8,17.1-4.57a11.83,11.83,0,0,0,22,2.3l1.1,6.86a27.35,27.35,0,0,0,23.81-5.72c-2.85,2.49-1.06,7.71,2.41,9.25s7.52.48,11-1a46.9,46.9,0,0,0,21.2-18.51c-10.57-7.29-64-6.73-96.08-7.5"/><path class="cls-9" d="M221.83,50.23c-6,4.7-7.74,14.78-1.57,20.17,6.6,5.76,16.36,1.56,19.72-5.56l-2.57.87c4,11.64,18.34,11.93,24.32,1.88l-2.42,0,1.1,6.87c.08.49.22.89.76,1A29.45,29.45,0,0,0,286,69.43l-1.16-2.33a7.27,7.27,0,0,0-1.19,8.4c2.26,4.52,7.58,4.83,11.95,3.62,10.71-3,19.82-11.53,25.62-20.7.37-.6.62-1.72-.09-2.18-4.17-2.7-9.7-3.42-14.5-4.13-8.29-1.23-16.7-1.74-25.07-2.14-18.93-.9-37.88-.89-56.82-1.34-1.53,0-2.94,3.31-1.25,3.35,18.47.43,37,.44,55.43,1.28,8.13.37,16.29.84,24.37,1.91,5.22.68,11.43,1.27,16,4.2l-.09-2.18a45.51,45.51,0,0,1-14.8,14.74,30,30,0,0,1-9.78,4.26c-2.18.41-4.77.4-6.64-1-1.69-1.23-3.35-4.13-1.62-6.11.95-1.09.6-3.75-1.16-2.34a26.33,26.33,0,0,1-13.46,5.87c-2,.24-5.08.66-7.1-.07-2.45-.88-2.16-3.93-2.54-6.28-.25-1.56-1.81-1-2.42.06-5.06,8.5-16.64,6-19.6-2.73-.54-1.61-2.2.09-2.57.86-2.45,5.2-9.84,6.71-14.43,3.52-5-3.47-5.09-11.44-.41-15.14,1.32-1,1.05-4.12-.83-2.64Z"/><polygon class="cls-11" points="62.89 283.38 102.25 283.08 101.06 299.65 62.6 302.05 62.89 283.38"/><polygon class="cls-11" points="132.43 283.38 167.34 282.78 164.97 294.62 131.24 299.35 132.43 283.38"/><polygon class="cls-17" points="212.31 280.42 244.86 281.01 243.67 293.44 212.31 292.25 212.31 280.42"/><polygon class="cls-17" points="275.63 280.25 307.67 278.28 308.74 294.04 278.25 292.43 275.63 280.25"/><path class="cls-9" d="M280.7,97.43c9.08-6.18,17.44-4,26.68.63,2.27,1.13,5.28-4.2,3.06-5.3-10.32-5.14-19.76-7.23-29.82-.38-1.88,1.27-2.85,7,.08,5.05Z"/><path class="cls-9" d="M255,90.09a37.68,37.68,0,0,0-29.75,0c-2.19.9-3.28,6.44.09,5A34.13,34.13,0,0,1,252,95.4c2.36,1,5.29-4.36,3.07-5.31Z"/><path class="cls-7" d="M56.86,100.39c8.29-7.81,25.33-7.41,33.82-.15,1.81,1.54,5.11-3.68,3.11-5.39C84,86.45,65,87.25,55.64,96.07c-1.9,1.8-1.73,7.11,1.22,4.32Z"/><path class="cls-7" d="M137.49,98.07c7.45-5.81,17.85-5.26,25.23.31,1.95,1.47,5.2-3.81,3.11-5.38-8.91-6.73-20.91-6-29.56.74-2.11,1.65-2,6.83,1.22,4.33Z"/><path class="cls-12" d="M268.9,194.11s3.11,4.52,6.14,4.65,4.73-5.33,4.73-5.33Z"/></g></g></g></svg>